<mxfile host="app.diagrams.net" agent="Mozilla/5.0 (Windows NT 10.0; Win64; x64) AppleWebKit/537.36 (KHTML, like Gecko) Chrome/128.0.0.0 YaBrowser/24.10.0.0 Safari/537.36" version="24.8.3">
  <diagram name="Страница — 1" id="4gcxjlPfjBaJrD-42XAj">
    <mxGraphModel dx="1434" dy="767" grid="1" gridSize="10" guides="1" tooltips="1" connect="1" arrows="1" fold="1" page="1" pageScale="1" pageWidth="827" pageHeight="1169" math="0" shadow="0">
      <root>
        <mxCell id="0" />
        <mxCell id="1" parent="0" />
        <mxCell id="vSQ0E8Udlh7ZlHRzBrvM-1" value="Animals" style="rounded=0;whiteSpace=wrap;html=1;" vertex="1" parent="1">
          <mxGeometry x="150" y="160" width="120" height="60" as="geometry" />
        </mxCell>
        <mxCell id="vSQ0E8Udlh7ZlHRzBrvM-9" style="edgeStyle=orthogonalEdgeStyle;rounded=0;orthogonalLoop=1;jettySize=auto;html=1;exitX=0.5;exitY=0;exitDx=0;exitDy=0;entryX=1;entryY=0.5;entryDx=0;entryDy=0;" edge="1" parent="1" source="vSQ0E8Udlh7ZlHRzBrvM-2" target="vSQ0E8Udlh7ZlHRzBrvM-1">
          <mxGeometry relative="1" as="geometry" />
        </mxCell>
        <mxCell id="vSQ0E8Udlh7ZlHRzBrvM-2" value="homeAnimals" style="rounded=0;whiteSpace=wrap;html=1;" vertex="1" parent="1">
          <mxGeometry x="504" y="290" width="120" height="60" as="geometry" />
        </mxCell>
        <mxCell id="vSQ0E8Udlh7ZlHRzBrvM-8" style="edgeStyle=orthogonalEdgeStyle;rounded=0;orthogonalLoop=1;jettySize=auto;html=1;exitX=0.5;exitY=0;exitDx=0;exitDy=0;entryX=0.5;entryY=1;entryDx=0;entryDy=0;" edge="1" parent="1" source="vSQ0E8Udlh7ZlHRzBrvM-4" target="vSQ0E8Udlh7ZlHRzBrvM-1">
          <mxGeometry relative="1" as="geometry" />
        </mxCell>
        <mxCell id="vSQ0E8Udlh7ZlHRzBrvM-4" value="packedAnimals" style="whiteSpace=wrap;html=1;rounded=0;" vertex="1" parent="1">
          <mxGeometry x="180" y="290" width="120" height="60" as="geometry" />
        </mxCell>
        <mxCell id="vSQ0E8Udlh7ZlHRzBrvM-15" style="edgeStyle=orthogonalEdgeStyle;rounded=0;orthogonalLoop=1;jettySize=auto;html=1;exitX=0;exitY=0.5;exitDx=0;exitDy=0;" edge="1" parent="1" source="vSQ0E8Udlh7ZlHRzBrvM-10">
          <mxGeometry relative="1" as="geometry">
            <mxPoint x="240" y="440" as="targetPoint" />
          </mxGeometry>
        </mxCell>
        <mxCell id="vSQ0E8Udlh7ZlHRzBrvM-10" value="Dog" style="rounded=0;whiteSpace=wrap;html=1;" vertex="1" parent="1">
          <mxGeometry x="260" y="410" width="120" height="60" as="geometry" />
        </mxCell>
        <mxCell id="vSQ0E8Udlh7ZlHRzBrvM-14" style="edgeStyle=orthogonalEdgeStyle;rounded=0;orthogonalLoop=1;jettySize=auto;html=1;exitX=0;exitY=0.5;exitDx=0;exitDy=0;" edge="1" parent="1" source="vSQ0E8Udlh7ZlHRzBrvM-11">
          <mxGeometry relative="1" as="geometry">
            <mxPoint x="240" y="510" as="targetPoint" />
          </mxGeometry>
        </mxCell>
        <mxCell id="vSQ0E8Udlh7ZlHRzBrvM-11" value="Cat" style="rounded=0;whiteSpace=wrap;html=1;" vertex="1" parent="1">
          <mxGeometry x="260" y="480" width="120" height="60" as="geometry" />
        </mxCell>
        <mxCell id="vSQ0E8Udlh7ZlHRzBrvM-13" style="edgeStyle=orthogonalEdgeStyle;rounded=0;orthogonalLoop=1;jettySize=auto;html=1;exitX=0;exitY=0.5;exitDx=0;exitDy=0;entryX=0.5;entryY=1;entryDx=0;entryDy=0;" edge="1" parent="1" source="vSQ0E8Udlh7ZlHRzBrvM-12" target="vSQ0E8Udlh7ZlHRzBrvM-4">
          <mxGeometry relative="1" as="geometry" />
        </mxCell>
        <mxCell id="vSQ0E8Udlh7ZlHRzBrvM-12" value="Hamster" style="rounded=0;whiteSpace=wrap;html=1;" vertex="1" parent="1">
          <mxGeometry x="260" y="550" width="120" height="60" as="geometry" />
        </mxCell>
        <mxCell id="vSQ0E8Udlh7ZlHRzBrvM-21" style="edgeStyle=orthogonalEdgeStyle;rounded=0;orthogonalLoop=1;jettySize=auto;html=1;exitX=0;exitY=0.5;exitDx=0;exitDy=0;" edge="1" parent="1">
          <mxGeometry relative="1" as="geometry">
            <mxPoint x="564" y="440.080459770115" as="targetPoint" />
            <mxPoint x="594" y="440" as="sourcePoint" />
          </mxGeometry>
        </mxCell>
        <mxCell id="vSQ0E8Udlh7ZlHRzBrvM-16" value="Horse" style="rounded=0;whiteSpace=wrap;html=1;" vertex="1" parent="1">
          <mxGeometry x="590" y="410" width="120" height="60" as="geometry" />
        </mxCell>
        <mxCell id="vSQ0E8Udlh7ZlHRzBrvM-20" style="edgeStyle=orthogonalEdgeStyle;rounded=0;orthogonalLoop=1;jettySize=auto;html=1;exitX=0;exitY=0.5;exitDx=0;exitDy=0;" edge="1" parent="1" source="vSQ0E8Udlh7ZlHRzBrvM-17">
          <mxGeometry relative="1" as="geometry">
            <mxPoint x="564" y="510" as="targetPoint" />
            <mxPoint x="584" y="510" as="sourcePoint" />
            <Array as="points" />
          </mxGeometry>
        </mxCell>
        <mxCell id="vSQ0E8Udlh7ZlHRzBrvM-17" value="Camel" style="rounded=0;whiteSpace=wrap;html=1;" vertex="1" parent="1">
          <mxGeometry x="590" y="480" width="120" height="60" as="geometry" />
        </mxCell>
        <mxCell id="vSQ0E8Udlh7ZlHRzBrvM-19" style="edgeStyle=orthogonalEdgeStyle;rounded=0;orthogonalLoop=1;jettySize=auto;html=1;exitX=0;exitY=0.5;exitDx=0;exitDy=0;entryX=0.5;entryY=1;entryDx=0;entryDy=0;" edge="1" parent="1" source="vSQ0E8Udlh7ZlHRzBrvM-18" target="vSQ0E8Udlh7ZlHRzBrvM-2">
          <mxGeometry relative="1" as="geometry" />
        </mxCell>
        <mxCell id="vSQ0E8Udlh7ZlHRzBrvM-18" value="Donkey" style="rounded=0;whiteSpace=wrap;html=1;" vertex="1" parent="1">
          <mxGeometry x="590" y="550" width="120" height="60" as="geometry" />
        </mxCell>
      </root>
    </mxGraphModel>
  </diagram>
</mxfile>
